<svg xmlns="http://www.w3.org/2000/svg" width="64" height="64" viewBox="0 0 64 64" fill="none">
  <circle cx="32" cy="32" r="31" fill="#2775CA" stroke="#1D4F8F" stroke-width="2"/>
  <path d="M31.997 43.2c5.363 0 9.708-2.376 9.708-6.445 0-3.616-2.7-5.462-8.404-6.296l-1.214-.18c-3.38-.487-4.867-1.349-4.867-2.98 0-1.923 2.133-3.242 5.189-3.242 2.986 0 5.054 1.09 6.196 2.94l2.865-1.688c-1.803-2.897-4.947-4.458-8.66-4.714V17.6h-2.05v2.934c-5.12.41-8.76 2.944-8.76 6.763 0 3.39 2.403 5.32 7.762 6.1l1.297.195c3.83.548 5.435 1.43 5.435 3.174 0 2.03-2.255 3.393-5.62 3.393-3.456 0-5.948-1.302-7.09-3.518l-2.97 1.726c1.66 3.252 5.017 5.24 9.742 5.487V46.4h2.05v-3.2z" fill="#fff"/>
</svg>
