<svg width="470" height="150" viewBox="0 0 470 150" fill="none" xmlns="http://www.w3.org/2000/svg">
<g clip-path="url(#clip0_11822_12603)">
<path d="M12.0173 71.6614C12.731 71.6614 13.5012 71.6614 14.3145 71.6848C15.1279 71.6947 15.9445 71.7516 16.7479 71.8183C17.5512 71.8949 18.2982 72.0083 18.9986 72.1652C19.6992 72.3219 20.29 72.5455 20.788 72.8591C21.8735 73.4964 22.7897 74.394 23.5498 75.525C24.3068 76.6561 24.6819 78.0474 24.6819 79.7056C24.6819 81.454 24.2504 82.9554 23.4039 84.2333C22.554 85.4978 21.3457 86.4421 19.7589 87.0559V87.1461C21.7972 87.5731 23.3574 88.4907 24.4429 89.902C25.5284 91.3133 26.0729 93.0283 26.0729 95.0435C26.0729 96.2413 25.8571 97.409 25.4289 98.54C24.9973 99.6713 24.3534 100.679 23.5035 101.553C22.6537 102.427 21.6012 103.134 20.3464 103.672C19.0916 104.209 17.6542 104.479 16.0109 104.479H0V71.6614H12.0173ZM13.229 85.7681C15.7287 85.7681 17.5413 85.331 18.6401 84.4567C19.7389 83.5826 20.2933 82.2714 20.2933 80.523C20.2933 79.3586 20.1108 78.4378 19.7389 77.7672C19.3671 77.0965 18.8559 76.5694 18.2119 76.2091C17.5678 75.852 16.8076 75.6051 15.9611 75.4917C15.1113 75.3782 14.2083 75.3348 13.2456 75.3348H4.40192V85.7681H13.229ZM15.4598 100.792C17.4052 100.792 18.9356 100.278 20.031 99.2341C21.1299 98.1931 21.6843 96.7585 21.6843 94.9199C21.6843 93.8457 21.4818 92.9583 21.0834 92.2543C20.6751 91.5468 20.1438 90.9896 19.4867 90.5726C18.8194 90.1589 18.0591 89.8653 17.1894 89.6985C16.3196 89.5315 15.4233 89.4415 14.4971 89.4415H4.40192V100.792H15.4598Z" fill="black"/>
<path d="M52.4118 71.8079V100.929H69.9532V104.606H48.01V71.8079H52.4118Z" fill="black"/>
<path d="M220.411 71.6614H214.695L199.033 88.0202V71.6614H194.631V104.469H199.033V92.9848L220.411 71.6614Z" fill="black"/>
<path d="M204.792 86.1487C203.525 86.8092 202.266 87.5032 201.034 88.2205L215.589 104.556H221.156L204.792 86.1586V86.1487Z" fill="black"/>
<path d="M238.268 75.3353V71.6584H264.762V75.3353H253.714V104.456H249.3V75.3353H238.255H238.264H238.268Z" fill="black"/>
<path d="M284.987 81.6116C285.701 79.5496 286.762 77.7112 288.2 76.1198C289.625 74.5281 291.403 73.2502 293.519 72.3094C295.646 71.3586 298.113 70.8848 300.931 70.8848C303.749 70.8848 306.217 71.3553 308.344 72.3094C310.459 73.2603 312.238 74.5281 313.662 76.1198C315.087 77.7112 316.163 79.5362 316.875 81.6116C317.59 83.6735 317.938 85.8356 317.938 88.0643C317.938 90.2931 317.576 92.4551 316.875 94.5171C316.163 96.5891 315.091 98.4174 313.662 100.009C312.238 101.6 310.459 102.865 308.344 103.796C306.217 104.727 303.749 105.197 300.931 105.197C298.113 105.197 295.634 104.727 293.519 103.796C291.39 102.865 289.625 101.6 288.2 100.009C286.776 98.4174 285.701 96.5924 284.987 94.5171C284.273 92.4551 283.911 90.3031 283.911 88.0643C283.911 85.8255 284.273 83.6735 284.987 81.6116ZM289.343 92.9622C289.808 94.5638 290.532 96.0218 291.526 97.2997C292.522 98.5876 293.801 99.6186 295.362 100.403C296.924 101.187 298.781 101.58 300.931 101.58C303.082 101.58 304.948 101.187 306.499 100.403C308.06 99.6186 309.34 98.5876 310.333 97.2997C311.329 96.0117 312.053 94.5671 312.518 92.9622C312.979 91.3607 313.217 89.7225 313.217 88.0643C313.217 86.4061 312.979 84.7813 312.518 83.1664C312.053 81.5648 311.329 80.1068 310.333 78.8289C309.336 77.541 308.06 76.5102 306.499 75.7261C304.934 74.942 303.08 74.5483 300.931 74.5483C298.783 74.5483 296.915 74.942 295.362 75.7261C293.797 76.5102 292.519 77.541 291.526 78.8289C290.532 80.1169 289.808 81.5615 289.343 83.1664C288.881 84.7813 288.642 86.4061 288.642 88.0643C288.642 89.7225 288.868 91.3475 289.343 92.9622Z" fill="black"/>
<path d="M366.007 104.47L358.446 76.9074H358.355L350.693 104.47H346.098L336.477 71.6724H340.982L348.611 98.9548H348.7L356.512 71.6724H360.209L368.233 98.9548H368.322L376.188 71.6724H380.59L370.597 104.47H366.003H366.007Z" fill="black"/>
<path d="M454.257 91.1139C460.722 91.1139 462.372 90.5534 462.372 90.5534C464.386 90.0028 466.647 87.6639 467.552 86.1626C468.459 84.6611 468.924 82.3288 468.924 80.3469C468.924 77.6812 468.031 75.5859 466.252 74.0511C464.475 72.5162 462.006 71.7556 458.849 71.7556H443.538V104.553H447.94V91.1172H454.257V91.1139ZM447.953 75.4156H458.624C460.694 75.4156 462.199 75.9329 463.129 76.9737C464.053 78.0148 464.518 79.3594 464.518 81.0176C464.518 82.2153 464.316 83.1796 463.896 83.9304C463.477 84.6811 462.923 85.8589 462.222 86.3059C461.521 86.7531 460.718 87.0468 459.787 87.2035C458.859 87.3604 457.886 87.437 456.87 87.437H447.953V75.4156Z" fill="black"/>
<path d="M88.0685 81.6118C88.7823 79.5498 89.8447 77.7115 91.282 76.12C92.7095 74.5284 94.4856 73.2505 96.6002 72.3097C98.7282 71.3588 101.195 70.885 104.013 70.885C106.832 70.885 109.298 71.3555 111.426 72.3097C113.544 73.2606 115.32 74.5284 116.744 76.12C118.172 77.7115 119.244 79.5365 119.958 81.6118C120.671 83.6738 121.02 85.8358 121.02 88.0646C121.02 90.2933 120.658 92.4553 119.958 94.5173C119.244 96.5894 118.168 98.4176 116.744 100.009C115.317 101.601 113.541 102.865 111.426 103.796C109.298 104.727 106.832 105.197 104.013 105.197C101.195 105.197 98.7181 104.727 96.6002 103.796C94.4722 102.865 92.7062 101.601 91.282 100.009C89.8546 98.4176 88.7823 96.5926 88.0685 94.5173C87.3549 92.4553 86.9929 90.3034 86.9929 88.0646C86.9929 85.8257 87.3549 83.6738 88.0685 81.6118ZM92.424 92.9625C92.8889 94.564 93.6124 96.0221 94.6084 97.2999C95.6042 98.5879 96.8824 99.6189 98.4461 100.403C100.006 101.187 101.865 101.581 104.013 101.581C106.161 101.581 108.03 101.187 109.58 100.403C111.141 99.6189 112.422 98.5879 113.418 97.2999C114.414 96.012 115.137 94.5673 115.602 92.9625C116.067 91.3609 116.303 89.7227 116.303 88.0646C116.303 86.4064 116.064 84.7815 115.602 83.1666C115.137 81.5651 114.414 80.107 113.418 78.8292C112.422 77.5412 111.144 76.5104 109.58 75.7263C108.02 74.9422 106.161 74.5485 104.013 74.5485C101.865 74.5485 99.9963 74.9422 98.4461 75.7263C96.8857 76.5104 95.6042 77.5412 94.6084 78.8292C93.6124 80.1171 92.8889 81.5618 92.424 83.1666C91.9593 84.7815 91.7236 86.4064 91.7236 88.0646C91.7236 89.7227 91.9493 91.3477 92.424 92.9625Z" fill="black"/>
<path d="M169.642 96.1689C169.403 96.5626 169.144 96.9429 168.862 97.2999C167.866 98.5879 166.588 99.6189 165.025 100.403C163.464 101.187 161.605 101.581 159.458 101.581C157.31 101.581 155.441 101.187 153.89 100.403C152.33 99.6189 151.049 98.5879 150.053 97.2999C149.057 96.012 148.333 94.5673 147.869 92.9625C147.404 91.3609 147.168 89.7227 147.168 88.0646C147.168 86.4064 147.394 84.7815 147.869 83.1666C148.333 81.5651 149.057 80.107 150.053 78.8292C151.049 77.5412 152.327 76.5104 153.89 75.7263C155.451 74.9422 157.306 74.5485 159.458 74.5485C161.609 74.5485 163.474 74.9422 165.025 75.7263C166.588 76.5104 167.866 77.5412 168.862 78.8292C169.101 79.1329 169.314 79.4465 169.516 79.7601C170.728 78.9426 171.926 78.1118 173.138 77.2844C172.846 76.8806 172.527 76.4902 172.189 76.12C170.765 74.5284 168.985 73.2505 166.87 72.3097C164.743 71.3588 162.276 70.885 159.458 70.885C156.639 70.885 154.159 71.3555 152.045 72.3097C149.917 73.2606 148.151 74.5284 146.727 76.12C145.299 77.7115 144.227 79.5365 143.513 81.6118C142.799 83.6738 142.438 85.8358 142.438 88.0646C142.438 90.2933 142.799 92.4553 143.513 94.5173C144.227 96.5894 145.302 98.4176 146.727 100.009C148.154 101.601 149.93 102.865 152.045 103.796C154.173 104.727 156.639 105.197 159.458 105.197C162.276 105.197 164.743 104.727 166.87 103.796C168.989 102.865 170.765 101.601 172.189 100.009C172.643 99.5054 173.048 98.9682 173.42 98.4176C172.119 97.7237 170.841 96.9929 169.629 96.1656H169.639L169.642 96.1689Z" fill="black"/>
<path d="M458.692 88.5242C457.213 88.928 455.695 89.2315 454.165 89.4551L463.432 104.549H469L458.69 88.5275L458.692 88.5242Z" fill="black"/>
<path d="M423.408 71.9189H401.906V75.5256H423.408V71.9189Z" fill="#AFE335"/>
<path d="M423.418 86.5417H397.265V90.1484H423.418V86.5417Z" fill="#AFE335"/>
<path d="M423.404 100.985H392.738V104.592H423.404V100.985Z" fill="#AFE335"/>
<path d="M423.417 57.3655H371.372V60.9722H423.417V57.3655Z" fill="#AFE335"/>
<path d="M423.404 42.7642H336.05V46.3709H423.404V42.7642Z" fill="#AFE335"/>
<path d="M329.45 42.7642H315.577V46.3709H329.45V42.7642Z" fill="#AFE335"/>
<path d="M309.001 42.7642H300.681V46.3709H309.001V42.7642Z" fill="#AFE335"/>
<path d="M364.682 57.3655H356.364V60.9722H364.682V57.3655Z" fill="#AFE335"/>
</g>
<defs>
<clipPath id="clip0_11822_12603">
<rect width="469" height="64" fill="white" transform="translate(0 42)"/>
</clipPath>
</defs>
</svg>
