<svg width="470" height="150" viewBox="0 0 470 150" fill="none" xmlns="http://www.w3.org/2000/svg">
<g clip-path="url(#clip0_11768_15560)">
<path d="M142.439 115.341H144.929V100.058H142.51L142.439 115.341ZM166.86 112.116L154.72 100.058H151.689V115.341H154.108V102.812L166.532 115.341H169.251V100.058H166.86V112.116ZM183.069 113.22L176.238 100.058H173.392L181.589 115.429H184.62L192.889 100.058H190.043L183.069 113.22ZM196.845 115.341H212.742V113.382H199.265V108.171H207.547V106.345H199.321V102.061H212.799V100.058H196.845V115.341ZM226.731 106.345C222.063 106.183 220.882 105.285 220.882 103.93C220.882 102.576 222.903 101.545 226.076 101.545C228.715 101.42 231.322 102.185 233.505 103.724L234.644 102.017C232.178 100.274 229.23 99.4112 226.247 99.5578C221.48 99.5578 218.235 101.251 218.235 104.181C218.235 106.801 220.654 108.244 226.489 108.524C231.314 108.759 232.566 109.599 232.566 110.983C232.566 112.72 230.161 113.765 226.518 113.765C223.779 113.953 221.072 113.07 218.932 111.292L217.78 112.941C220.202 114.916 223.239 115.906 226.318 115.723C231.299 115.723 235.128 113.927 235.128 110.747C235.113 108.141 232.865 106.639 226.66 106.345H226.731ZM239.539 102.223H247.011V115.341H249.473V102.223H256.973V100.058H239.468L239.539 102.223ZM270.649 99.5578C264.8 99.5578 261.1 103.091 261.1 107.641C261.1 112.19 264.8 115.723 270.649 115.723C276.498 115.723 280.127 112.16 280.127 107.641C280.127 103.121 276.441 99.5578 270.578 99.5578H270.649ZM270.649 113.618C266.209 113.618 263.704 110.924 263.704 107.641C263.704 104.357 266.209 101.678 270.649 101.678C275.089 101.678 277.608 104.299 277.608 107.641C277.608 110.983 275.032 113.618 270.578 113.618H270.649ZM303.495 104.976C303.495 102.385 301.602 100.058 297.803 100.058H286.261V115.341H288.68V109.716H294.629L300.976 115.341H304.534L297.717 109.569C301.716 109.481 303.424 107.464 303.424 104.976H303.495ZM288.652 107.758V102.061H297.717C298.117 102.013 298.523 102.053 298.907 102.18C299.291 102.306 299.645 102.515 299.945 102.794C300.245 103.072 300.484 103.413 300.647 103.794C300.81 104.176 300.893 104.588 300.891 105.005C300.891 106.654 299.695 107.758 297.561 107.758H288.652ZM318.338 106.286C313.67 106.124 312.489 105.226 312.489 103.872C312.489 102.517 314.51 101.486 317.684 101.486C320.323 101.361 322.93 102.126 325.112 103.665L326.251 101.958C323.785 100.215 320.837 99.3523 317.854 99.4989C313.087 99.4989 309.842 101.192 309.842 104.122C309.842 106.742 312.262 108.185 318.096 108.465C322.921 108.701 324.173 109.54 324.173 110.924C324.173 112.661 321.768 113.706 318.125 113.706C315.43 113.86 312.774 112.979 310.668 111.233L309.501 112.882C311.926 114.851 314.961 115.84 318.039 115.664C323.02 115.664 326.849 113.868 326.849 110.688C326.721 108.141 324.472 106.639 318.267 106.345L318.338 106.286Z" fill="#1F262F"/>
<path d="M455.172 106.346H333.551V108.172H455.172V106.346Z" fill="#1F262F"/>
<path d="M135.621 106.346H14V108.172H135.621V106.346Z" fill="#1F262F"/>
<path d="M217.508 36.0306C215.145 36.2917 212.769 36.4048 210.393 36.3692C210.734 39.6818 210.862 48.5596 210.862 52.9764V56.7601H186.199V46.2187C186.199 43.5391 186.199 38.0329 186.399 36.0306C184.036 36.291 181.659 36.4041 179.283 36.3692C179.61 39.6818 179.753 48.5596 179.753 52.9764V68.1996C179.753 72.6164 179.61 81.45 179.283 84.792H186.399C186.271 82.8634 186.199 77.4307 186.199 74.869V62.4136H210.763V68.1996C210.763 72.6164 210.635 81.45 210.293 84.792H217.409C217.281 82.8634 217.21 77.4307 217.21 74.869V46.2187C217.323 43.5391 217.395 38.0329 217.508 36.0306ZM146.935 61.5744C146.935 58.6299 149.454 57.7318 152.115 57.7318C154.822 57.7366 157.457 58.6282 159.644 60.2788L161.707 54.7578C158.786 53.0345 155.478 52.1358 152.115 52.1519C145.597 52.1519 141.015 56.4804 141.015 61.8541C141.015 72.16 156.669 70.2608 156.669 76.5768C156.669 79.1238 154.136 80.5078 150.749 80.5078C147.702 80.416 144.728 79.5189 142.111 77.9018L140.104 83.2609C143.328 85.0864 146.946 86.0385 150.621 86.0288C157.139 86.0288 162.661 82.0389 162.661 75.4873C162.704 65.579 146.935 66.6684 146.935 61.5744ZM36.7702 52.9764V66.0648V71.2325C36.7702 76.6651 33.8385 79.9336 28.5729 79.9336C24.3747 79.9336 21.4572 78.2257 20.4468 73.9267L14 76.0762C15.4943 82.3481 20.6745 86.0288 27.7475 86.0288C29.8537 86.139 31.9595 85.8042 33.9364 85.0449C35.9134 84.2855 37.7202 83.1174 39.2464 81.612C41.9789 78.8588 43.3166 75.5168 43.3166 69.4363V46.2187C43.3166 43.5391 43.3166 38.0329 43.5158 36.0306C41.1247 36.2997 38.7198 36.4177 36.3148 36.3839C36.6563 39.6818 36.7702 48.5596 36.7702 52.9764ZM71.5089 78.0049L71.9216 64.4453C72.1209 57.084 68.4065 52.1961 60.5366 52.1961C56.685 52.1706 52.8985 53.2237 49.5784 55.2437L51.0015 60.7499C53.4676 58.9085 56.4145 57.882 59.455 57.8054C64.1086 57.8054 66.0441 60.1463 65.916 64.887V65.9176C65.0479 65.9176 64.1798 65.7851 63.3117 65.7851C52.6666 65.7851 47.1448 70.0547 47.1448 76.459C47.1448 82.0978 50.9446 85.8226 56.7937 85.8226C58.7195 85.8592 60.6205 85.3694 62.3047 84.4026C63.9889 83.4357 65.3966 82.0262 66.3856 80.3164C66.3894 81.7378 66.9359 83.1002 67.9062 84.1067C68.8764 85.1132 70.1918 85.6824 71.5659 85.6901C72.9496 85.6572 74.3116 85.3262 75.5649 84.7184L76.1626 80.3016C75.3085 80.6261 74.4105 80.81 73.5013 80.8464C71.9928 80.7875 71.4662 79.963 71.5232 78.0343L71.5089 78.0049ZM65.6598 72.9845C65.6524 74.0001 65.4512 75.0042 65.0678 75.9392C64.6843 76.8741 64.1262 77.7216 63.4254 78.4329C62.7246 79.1442 61.895 79.7053 60.9841 80.0841C60.0732 80.4629 59.0989 80.6519 58.1172 80.6403C54.4455 80.6403 53.0509 78.638 53.0509 76.0321C53.0509 72.587 55.6552 69.7602 63.0982 69.7602C64.0375 69.7602 64.9056 69.8338 65.8306 69.8927L65.6598 72.9845ZM136.205 60.1021C136.205 57.7023 136.333 54.5223 136.532 52.7408C134.54 52.9469 132.006 53.0794 129.616 53.0794C129.943 56.024 130.085 60.7941 130.085 64.8576V72.852C130.085 76.9743 125.09 80.493 121.888 80.493C117.234 80.493 115.64 77.6663 115.64 72.4986V60.1316C115.64 57.7318 115.64 54.5517 115.897 52.7703C113.904 52.9764 111.513 53.1089 109.108 53.1089C109.379 56.0534 109.507 60.8236 109.507 64.887V73.7206C109.507 82.1125 113.306 86.0435 120.294 86.0435C122.309 85.8964 124.263 85.2581 125.994 84.1809C127.725 83.1037 129.186 81.618 130.256 79.8452L130.982 84.8068H136.674C136.33 81.0043 136.174 77.1862 136.205 73.3673V60.1021ZM104.668 63.5767C104.668 56.4215 101.48 52.1519 94.8199 52.1519C92.6271 52.2825 90.4982 52.965 88.6183 54.1401C86.7384 55.3152 85.1642 56.9474 84.0325 58.8949L83.5771 52.7703C81.5874 52.9948 79.5873 53.1078 77.5857 53.1089C77.8419 56.0534 77.9842 60.8236 77.9842 64.887V73.1464C77.9842 77.151 77.8419 81.8917 77.5857 84.9246H84.3741C84.1748 83.1284 84.1037 80.2427 84.1037 77.8282V66.3298C84.1037 62.1928 88.8285 57.7318 93.226 57.7318C97.2819 57.7318 98.5485 60.8236 98.5485 64.8134V73.0728C98.5859 77.0046 98.4292 80.9357 98.0789 84.8509H104.938C104.81 83.0548 104.668 80.1691 104.668 77.7546V63.5767ZM356.976 58.8949L356.364 52.6672C354.378 53.1823 352.347 53.4833 350.301 53.5653C350.799 56.847 351.023 60.1669 350.97 63.4884V73.1317C350.97 77.1215 350.899 81.877 350.572 84.9098H357.36C357.161 83.1137 357.09 80.228 357.09 77.8135V65.9176C357.09 61.1033 362.611 58.6888 367.052 59.5132L367.849 52.1519C362.811 52.7703 359.552 54.6253 356.976 58.8949ZM409.176 52.1519C399.727 52.1519 393.522 59.9991 393.522 69.9074C393.522 78.5202 399.215 86.0288 408.308 86.0288C417.829 86.0288 423.963 78.1816 423.963 68.2585C424.062 59.6457 418.327 52.1519 409.219 52.1519H409.176ZM408.636 80.4489C403.228 80.4489 399.67 76.5179 399.67 68.8621C399.67 62.6639 403.327 57.7171 408.991 57.7171C414.044 57.7171 418.043 61.7658 418.043 69.1419C418 75.4137 414.542 80.4489 408.678 80.4489H408.636ZM375.477 61.5744C375.477 58.6299 378.01 57.7318 380.671 57.7318C383.373 57.7397 386.003 58.6312 388.185 60.2788L390.249 54.7578C387.333 53.0344 384.029 52.1356 380.671 52.1519C374.153 52.1519 369.556 56.4804 369.556 61.8541C369.556 72.16 385.211 70.2608 385.211 76.5768C385.211 79.1238 382.692 80.5078 379.291 80.5078C376.244 80.4141 373.27 79.5171 370.652 77.9018L368.646 83.2609C371.865 85.1051 375.483 86.0775 379.163 86.0876C385.68 86.0876 391.216 82.0978 391.216 75.5462C391.245 65.579 375.477 66.6684 375.477 61.5744ZM448.327 84.792H455.172C455.03 82.9959 454.902 80.1102 454.902 77.6957V63.5767C454.902 56.4215 451.714 52.1519 445.054 52.1519C442.861 52.2825 440.732 52.965 438.852 54.1401C436.972 55.3152 435.398 56.9474 434.266 58.8949L433.825 52.7703C431.835 52.9948 429.835 53.1078 427.834 53.1089C428.09 56.0534 428.232 60.8236 428.232 64.887V73.1611C428.232 77.151 428.09 81.9064 427.834 84.9393H434.622C434.423 83.1431 434.352 80.2575 434.352 77.843V66.3298C434.352 62.1928 439.077 57.7318 443.474 57.7318C447.53 57.7318 448.797 60.8236 448.797 64.8134V73.0875C448.827 76.995 448.666 80.9016 448.313 84.792H448.327ZM314.083 42.5086C314.083 40.1677 314.083 36.7962 314.353 35C312.084 35.4274 309.794 35.7272 307.493 35.8981C307.821 39.6768 307.959 43.4705 307.906 47.264V54.4192C305.822 52.911 303.333 52.1179 300.79 52.1519C291.668 52.1519 284.88 60.1316 284.88 70.2608C284.88 79.0944 290.33 86.0288 298.983 86.0288C300.783 86.0009 302.556 85.5677 304.178 84.7592C305.8 83.9506 307.233 82.7862 308.376 81.3469L308.845 84.792H314.538C314.211 81.612 314.068 77.3571 314.068 73.3525L314.083 42.5086ZM307.963 75.6934C307.217 77.1588 306.097 78.3841 304.724 79.2357C303.352 80.0872 301.779 80.5324 300.178 80.5225C295.311 80.5225 291.056 76.8713 291.056 69.4952C291.056 63.032 294.728 57.7171 301.018 57.7171C302.316 57.6877 303.605 57.9338 304.807 58.4402C306.009 58.9467 307.097 59.7027 308.006 60.6616L307.963 75.6934ZM333.893 52.1372C324.443 52.1372 318.38 59.9844 318.38 69.8927C318.38 78.5055 323.248 86.014 333.494 86.014C337.572 85.9754 341.542 84.6559 344.879 82.2303L342.773 77.946L342.744 77.6957C340.206 79.4883 337.208 80.4571 334.134 80.4783C328.214 80.4783 325.012 77.2393 324.557 70.835L342.744 70.3344L346.573 70.2166C346.688 69.4323 346.74 68.6395 346.729 67.8463C346.672 59.1746 342.944 52.1519 333.893 52.1519V52.1372ZM324.642 66.0354C325.51 61.1474 328.641 57.4373 333.565 57.4373C338.148 57.4373 340.282 60.2641 340.951 65.5642L324.642 66.0354ZM280.838 63.5767C280.838 56.4215 277.636 52.1519 270.99 52.1519C268.797 52.2825 266.668 52.965 264.788 54.1401C262.908 55.3152 261.334 56.9474 260.203 58.8949L259.733 52.7703C257.743 52.9956 255.743 53.1087 253.742 53.1089C254.012 56.0534 254.14 60.8236 254.14 64.887V73.1611C254.14 77.151 254.012 81.9064 253.742 84.9393H260.53C260.331 83.1431 260.274 80.2575 260.274 77.843V66.3298C260.274 62.1928 264.999 57.7318 269.396 57.7318C273.452 57.7318 274.719 60.8236 274.719 64.8134V73.0875C274.719 77.0774 274.576 81.8328 274.249 84.8657H281.108C280.966 83.0695 280.838 80.1839 280.838 77.7693V63.5767ZM249.913 67.7726C249.913 59.1746 246.185 52.1519 237.105 52.1519C227.655 52.1519 221.593 59.9991 221.593 69.9074C221.593 78.5202 226.46 86.0288 236.707 86.0288C240.808 86.0022 244.805 84.6823 248.163 82.245L246.057 77.946L245.971 77.6957C243.456 79.4825 240.483 80.4514 237.432 80.4783C231.512 80.4783 228.31 77.2393 227.855 70.835L245.971 70.3344L249.814 70.2166C249.921 69.4364 249.974 68.6491 249.97 67.861L249.913 67.7726ZM227.883 66.0501C228.751 61.1622 231.868 57.4521 236.806 57.4521C241.389 57.4521 243.523 60.2788 244.192 65.579L227.883 66.0501Z" fill="#1F262F"/>
</g>
<defs>
<clipPath id="clip0_11768_15560">
<rect width="441.172" height="80.9747" fill="white" transform="translate(14 35)"/>
</clipPath>
</defs>
</svg>
