<svg width="470" height="150" viewBox="0 0 470 150" fill="none" xmlns="http://www.w3.org/2000/svg">
<path d="M160.033 149.937V98.8218C214.356 98.5292 258.333 54.5349 258.6 0.204346H309.764V149.937H160.033Z" fill="#153D0E"/>
<path d="M160 70.654V0.185059H230.469V70.654H160Z" fill="#153D0E"/>
<path d="M294.137 138.044V119.346H297.908V138.044H294.137ZM293.903 115.575V111.107H298.101V115.575H293.903ZM274.208 138.042V110.83H290.533V114.484H278.094V122.298H290.533V125.952H278.094V138.042H274.208ZM259.659 138.588C255.344 138.588 252.622 136.335 252.622 132.757C252.622 129.415 254.877 127.006 259.464 126.732L265.142 126.42V125.373C265.142 122.922 263.936 121.912 261.37 121.912C258.881 121.912 257.638 122.575 257.326 124.555H253.557C253.984 120.708 256.627 118.802 261.641 118.802C266.111 118.802 268.716 121.057 268.716 125.177V134.314C268.716 134.741 268.911 134.934 269.34 134.934H270.932V138.044H267.9C266.616 138.044 265.879 137.346 265.879 136.101V135.557C264.79 137.461 262.574 138.588 259.659 138.588ZM256.393 132.642C256.393 134.351 257.794 135.479 260.087 135.479C263.118 135.479 265.14 133.731 265.14 130.543V129.337L259.93 129.727C257.521 129.881 256.393 131.126 256.393 132.642ZM241.527 138.034V119.336H244.871V122.368C245.339 120.503 246.736 119.336 248.952 119.336H252.529V122.639H248.603C246.27 122.639 245.298 123.962 245.298 126.489V138.034H241.527ZM227.447 138.588C223.131 138.588 220.41 136.335 220.41 132.757C220.41 129.415 222.665 127.006 227.252 126.732L232.927 126.42V125.373C232.927 122.922 231.721 121.912 229.156 121.912C226.668 121.912 225.424 122.575 225.114 124.555H221.342C221.772 120.708 224.413 118.802 229.429 118.802C233.899 118.802 236.503 121.057 236.503 125.177V134.314C236.503 134.741 236.698 134.934 237.126 134.934H238.72V138.044H235.686C234.402 138.044 233.665 137.346 233.665 136.101V135.557C232.576 137.461 230.362 138.588 227.447 138.588ZM224.181 132.642C224.181 134.351 225.58 135.479 227.874 135.479C230.906 135.479 232.927 133.731 232.927 130.543V129.337L227.718 129.727C225.309 129.881 224.181 131.126 224.181 132.642ZM199.304 138.042V110.83H210.577C216.254 110.83 219.596 113.864 219.596 118.839C219.596 123.853 216.252 126.924 210.577 126.924H203.191V138.042H199.304ZM203.191 123.308H210.421C213.765 123.308 215.63 121.677 215.63 118.839C215.63 116.078 213.765 114.484 210.421 114.484H203.191V123.308Z" fill="#E0E6E9"/>
</svg>
