<svg width="84" height="35" viewBox="0 0 84 35" fill="none" xmlns="http://www.w3.org/2000/svg">
<g clip-path="url(#clip0_11987_11251)">
<path d="M74.5265 32.3557H70.7369L74.3126 24.5616L67.9559 11.4492H71.9593L76.2378 20.8633L80.2413 11.4492H84.0001L74.5265 32.3557Z" fill="#535E6D"/>
<path d="M66.6677 11.449L60.5557 17.7455L66.79 26.3342H62.4504L58.0803 20.2518L56.2467 22.1774V26.3342H52.7322V4.20508H56.2467V17.4704L61.9614 11.449H66.6677Z" fill="#535E6D"/>
<path d="M48.9868 9.73738L45.6862 10.7766C45.4722 9.43173 44.3416 7.44499 41.4384 7.44499C39.2379 7.44499 37.7099 8.91212 37.7099 10.5626C37.7099 11.9381 38.5656 12.9773 40.2464 13.3441L43.3636 13.9859C47.1837 14.7501 49.2312 17.1647 49.2312 20.2212C49.2312 23.5834 46.5114 26.7928 41.5605 26.7928C36.0598 26.7928 33.5232 23.2472 33.187 20.1295L36.6097 19.1515C36.8237 21.4133 38.4433 23.4918 41.5605 23.4918C44.1582 23.4918 45.5029 22.1774 45.5029 20.4963C45.5029 19.0903 44.4637 17.9594 42.5997 17.5621L39.5436 16.9202C36.243 16.2478 34.0427 14.0776 34.0427 10.8377C34.0427 7.20047 37.3738 4.20508 41.4077 4.20508C46.5114 4.20508 48.4978 7.32273 48.9868 9.73738Z" fill="#535E6D"/>
<path d="M2.4021 8.18457C3.96329 6.03576 6.16468 4.43635 8.69076 3.61558C11.2168 2.79481 13.9379 2.79481 16.464 3.61558L12.5774 15.5773L2.4021 8.18457Z" fill="#535E6D"/>
<path d="M1.37085 21.2871C0.621002 19.8154 0.168362 18.2104 0.0387726 16.5638C-0.0908167 14.9173 0.105182 13.2613 0.61558 11.6904L12.5773 15.577L1.37085 21.2871Z" fill="#535E6D"/>
<path d="M18.2887 4.37109C21.2606 5.88584 23.5091 8.51915 24.5395 11.6917L12.5773 15.5769L18.2887 4.37109Z" fill="#535E6D"/>
<path d="M25.1546 15.5771C25.1546 17.562 24.6849 19.5186 23.7838 21.2872C22.8827 23.0557 21.5759 24.5859 19.9701 25.7525L12.5773 15.5771H25.1546Z" fill="#535E6D"/>
<path d="M16.4641 27.5389C13.9381 28.3597 11.217 28.3597 8.69092 27.5389L12.5775 15.5771L16.4641 27.5389Z" fill="#535E6D"/>
<path d="M5.1846 25.7525C4.11685 24.9767 3.17786 24.0376 2.4021 22.9699L12.5774 15.5771L5.1846 25.7525Z" fill="#535E6D"/>
</g>
<defs>
<clipPath id="clip0_11987_11251">
<rect width="84" height="35" fill="white"/>
</clipPath>
</defs>
</svg>
